<svg width="165" height="60" viewBox="0 0 165 60" fill="none" xmlns="http://www.w3.org/2000/svg">
<path d="M87.196 28.9309H84.9134V33.4616H82.8652V21.6809H87.0085C88.3682 21.6809 89.4169 21.9869 90.1572 22.5964C90.8975 23.2059 91.2652 24.0894 91.2652 25.2442C91.2652 26.0314 91.0752 26.6928 90.6952 27.2233C90.3152 27.7563 89.7846 28.1635 89.106 28.4498L91.7513 33.3555V33.4616H89.5576L87.1936 28.9309H87.196ZM84.9134 27.2801H87.0183C87.7093 27.2801 88.2472 27.1049 88.6371 26.7569C89.027 26.409 89.2195 25.9327 89.2195 25.3281C89.2195 24.7236 89.0394 24.2078 88.6816 23.8623C88.3237 23.5169 87.7883 23.3392 87.0751 23.3293H84.9134V27.2776V27.2801Z" fill="#C4C4CC"/>
<path d="M101.753 28.203H96.9139V31.828H102.57V33.4616H94.8657V21.6809H102.513V23.3318H96.9139V26.5842H101.753V28.203V28.203Z" fill="#C4C4CC"/>
<path d="M112.49 30.72H107.925L106.97 33.4641H104.843L109.294 21.6809H111.13L115.59 33.4641H113.453L112.49 30.72V30.72ZM108.5 29.0691H111.915L110.208 24.1807L108.5 29.0691V29.0691Z" fill="#C4C4CC"/>
<path d="M127.402 29.6267C127.283 30.8828 126.82 31.8649 126.01 32.5682C125.201 33.2715 124.125 33.6243 122.782 33.6243C121.845 33.6243 121.018 33.4023 120.302 32.9556C119.587 32.5114 119.036 31.8772 118.647 31.058C118.259 30.2387 118.057 29.2862 118.04 28.2004V27.0998C118.04 25.9893 118.237 25.0097 118.629 24.1633C119.022 23.3168 119.589 22.6629 120.325 22.2039C121.06 21.7449 121.911 21.5154 122.879 21.5154C124.179 21.5154 125.225 21.8683 126.018 22.5716C126.81 23.2749 127.271 24.2718 127.402 25.5624H125.364C125.267 24.716 125.021 24.104 124.623 23.729C124.226 23.3539 123.646 23.1663 122.879 23.1663C121.988 23.1663 121.304 23.4921 120.828 24.1435C120.349 24.795 120.107 25.7475 120.095 27.006V28.0499C120.095 29.3232 120.322 30.2954 120.779 30.9667C121.235 31.6354 121.901 31.971 122.782 31.971C123.587 31.971 124.191 31.7909 124.596 31.4281C125.001 31.0654 125.258 30.4657 125.366 29.6242H127.404L127.402 29.6267Z" fill="#C4C4CC"/>
<path d="M139.168 23.3318H135.494V33.4641H133.463V23.3318H129.82V21.6809H139.168V23.3318Z" fill="#C4C4CC"/>
<path d="M145.445 21.6809H147.484V29.9427C147.484 31.0704 147.131 31.9662 146.428 32.63C145.724 33.2938 144.794 33.6245 143.639 33.6245C142.41 33.6245 141.46 33.3135 140.791 32.6942C140.123 32.0748 139.787 31.2111 139.787 30.1056H141.825C141.825 30.7324 141.981 31.2012 142.292 31.5171C142.603 31.8329 143.052 31.9909 143.639 31.9909C144.189 31.9909 144.629 31.8083 144.954 31.4455C145.28 31.0803 145.443 30.5794 145.443 29.9353V21.6809H145.445Z" fill="#C4C4CC"/>
<path d="M157.639 30.4288C157.639 29.9106 157.456 29.5108 157.093 29.2319C156.731 28.9531 156.072 28.6693 155.122 28.3831C154.172 28.0968 153.417 27.7785 152.856 27.4281C151.783 26.7544 151.245 25.8734 151.245 24.7901C151.245 23.8401 151.632 23.0578 152.407 22.4434C153.182 21.8289 154.187 21.5204 155.423 21.5204C156.242 21.5204 156.973 21.671 157.617 21.9745C158.258 22.2756 158.764 22.7074 159.129 23.2651C159.497 23.8228 159.68 24.4422 159.68 25.1233H157.641C157.641 24.5088 157.449 24.0276 157.064 23.6797C156.679 23.3317 156.126 23.1565 155.408 23.1565C154.739 23.1565 154.219 23.2996 153.851 23.5859C153.481 23.8721 153.296 24.2719 153.296 24.7827C153.296 25.2146 153.496 25.5748 153.895 25.8636C154.295 26.1523 154.952 26.4336 155.87 26.705C156.787 26.9765 157.523 27.2874 158.078 27.6354C158.633 27.9833 159.04 28.3831 159.3 28.8322C159.559 29.2838 159.687 29.8094 159.687 30.414C159.687 31.3961 159.312 32.1759 158.559 32.7558C157.807 33.3357 156.785 33.6269 155.497 33.6269C154.643 33.6269 153.861 33.4689 153.145 33.1531C152.43 32.8372 151.874 32.4029 151.477 31.8452C151.08 31.29 150.882 30.641 150.882 29.9032H152.931C152.931 30.5719 153.153 31.0901 153.594 31.4578C154.036 31.8255 154.67 32.0081 155.497 32.0081C156.21 32.0081 156.743 31.865 157.103 31.5762C157.461 31.2875 157.641 30.905 157.641 30.4312L157.639 30.4288Z" fill="#C4C4CC"/>
<path d="M72.9576 44.5758H68V12H72.9576V44.5758Z" fill="#00B37E"/>
<path d="M47.4084 12.7278L42.4318 12.0077C42.2845 11.9789 42.1373 12.0365 42.0784 12.0941L39.9582 14.8019C39.8109 14.9747 39.7815 15.2052 39.8404 15.4068C39.8993 15.6085 39.7226 15.7813 39.5165 15.7525L37.7791 15.378C37.514 15.3204 37.2196 15.4068 37.0429 15.6373L30.1522 24.2792C30.0344 24.4521 29.7988 24.5097 29.5927 24.4233L26.9719 23.271C26.7363 23.1558 26.4713 23.1846 26.2651 23.3286L24.94 24.2216C24.7339 24.3657 24.4394 24.3945 24.2038 24.2792L23.556 23.9624C23.1437 23.7607 22.6431 23.9912 22.5253 24.4233L22.0542 26.4685C21.9364 26.9582 22.1425 27.448 22.5842 27.7072L23.5854 28.3122L26.7952 30.2422L28.3559 31.1928C28.7976 31.4521 29.3571 31.3944 29.7399 31.0776L32.3607 28.8307C32.5669 28.6578 32.8908 28.6002 33.1264 28.7443L33.9215 29.1475C34.1865 29.2916 34.5104 29.234 34.7165 29.0323L36.0417 27.8224C36.2478 27.6208 36.5717 27.592 36.8073 27.7072L38.7803 28.6002C39.0748 28.7443 39.4281 28.6578 39.6343 28.3986L40.5471 27.2463L47.4673 18.5755C47.7912 18.1723 47.585 17.5673 47.055 17.4521L45.5237 17.1064C45.1998 17.0488 45.0526 16.6455 45.2881 16.4151L47.6734 13.5056C47.909 13.1599 47.7617 12.7854 47.4084 12.7278Z" fill="#E1E1E6"/>
<path d="M24.5838 30.1833C24.4366 30.0969 24.2894 30.2409 24.3483 30.385L25.0844 32.2862C25.1433 32.4302 25.1433 32.5743 25.1139 32.7183L24.466 35.1956C24.4366 35.3685 24.4955 35.5413 24.6133 35.6277L26.4685 37.0393C26.6452 37.1545 26.8807 37.1545 27.028 37.0105L28.9715 35.3397C29.0893 35.2533 29.2365 35.1956 29.3543 35.1668L31.5629 34.9364C31.7101 34.9076 31.769 34.7059 31.6218 34.6195L24.5838 30.1833Z" fill="#E1E1E6"/>
<path d="M23.9362 36.5814C23.8184 36.4949 23.6417 36.4661 23.4945 36.5237L21.9338 37.2727C21.8454 37.3015 21.7865 37.3879 21.7276 37.4744L18.4001 45.5114C18.4001 45.5402 18.4001 45.5402 18.4001 45.569C18.4295 45.5978 18.459 45.6266 18.5179 45.6266L19.2835 45.3385C19.313 45.3385 19.3424 45.3385 19.3718 45.3385C19.4013 45.3673 19.4307 45.425 19.4013 45.4538L17.0161 49.285C16.9572 49.3715 17.0749 49.4579 17.1338 49.3714L25.7619 40.9023C25.8503 40.8159 25.8797 40.7295 25.9092 40.6143L26.0858 38.425C26.0858 38.2809 26.027 38.1657 25.9386 38.0793L23.9362 36.5814Z" fill="#E1E1E6"/>
</svg>
